<svg xmlns="http://www.w3.org/2000/svg" width="99.995" height="69.085" viewBox="0 0 99.995 69.085"><defs><style>.a{fill:#3282fe;}</style></defs><g transform="translate(-4 -17.602)"><path class="a" d="M40.533,38.058l1.017-2.822c-.47-.17-11.667-4.118-23.375,0l.994,2.83C29.842,34.313,40.428,38.02,40.533,38.058Z" transform="translate(2.631 2.329)"/><path class="a" d="M40.533,47.057l1.017-2.822c-.47-.169-11.667-4.118-23.375,0l.994,2.83C29.842,43.312,40.428,47.019,40.533,47.057Z" transform="translate(2.631 3.658)"/><path class="a" d="M40.533,56.057l1.017-2.822c-.47-.17-11.667-4.118-23.375,0l.994,2.83C29.842,52.312,40.428,56.02,40.533,56.057Z" transform="translate(2.631 4.988)"/><path class="a" d="M76.82,38.058l1.017-2.822c-.47-.17-11.668-4.118-23.375,0l.994,2.83C66.128,34.313,76.714,38.02,76.82,38.058Z" transform="translate(9.366 2.329)"/><path class="a" d="M96.935,21.372l-1.126-.406A70.023,70.023,0,0,0,73.976,17.6a62.05,62.05,0,0,0-19.983,3.167A71.678,71.678,0,0,0,32.744,17.6,61.82,61.82,0,0,0,12.2,20.962l-1.14.4v3.457H4V86.687H104V24.819h-7.06Zm-.512,12.839.511.2,1.227.472-1.227,3.19-3.409,8.864-4.654,12.1L87.122,60.99l0-.745.007-1.875.182-.474,6.211-16.15ZM55.7,23.805a58.85,58.85,0,0,1,18.274-2.8,70.149,70.149,0,0,1,19.55,2.8V32.25l-5.961,15.5c-2.145-.71-13.935-4.209-26.225.11l1.129,3.216c10.881-3.823,21.677-.826,23.868-.137L84,57.024a42.4,42.4,0,0,0-22.657,1.064L62.47,61.3c8.476-2.977,16.9-1.816,21.247-.832l-.035,9.469,8.147-9.094,1.7-4.413V75.3a73.471,73.471,0,0,0-19.55-2.651A62.664,62.664,0,0,0,55.7,75.281Zm-41.233-.014A58.887,58.887,0,0,1,32.743,21.01a70.031,70.031,0,0,1,19.55,2.8V75.3a73.358,73.358,0,0,0-19.55-2.652,62.7,62.7,0,0,0-18.274,2.617V23.791Zm86.118,59.487H7.409V28.228H11.06v51.8l2.269-.8a58.444,58.444,0,0,1,19.414-3.167,67.9,67.9,0,0,1,20.676,3.162l.57.206.572-.2a58.442,58.442,0,0,1,19.413-3.167,67.923,67.923,0,0,1,20.677,3.162l2.282.82V47.568l3.653-9.494Zm0-55.051v3.934l-3.651-1.4V28.228Z" transform="translate(0 0)"/></g></svg>