<svg xmlns="http://www.w3.org/2000/svg" width="86.673" height="85.375" viewBox="0 0 86.673 85.375"><defs><style>.a{fill:#feae32;}</style></defs><g transform="translate(0 -1.498)"><path class="a" d="M21.9,45.076a9.92,9.92,0,1,1-9.909-9.92A9.917,9.917,0,0,1,21.9,45.076Z" transform="translate(-0.274 -4.485)"/><path class="a" d="M75.053,45.076a9.926,9.926,0,1,0,9.909-9.92A9.917,9.917,0,0,0,75.053,45.076Z" transform="translate(-10.002 -4.485)"/><path class="a" d="M37.852,82.579a6.825,6.825,0,0,1,1.964-5.485c-8.4-1.6-11.838-5.7-14.828-9.4A21.6,21.6,0,0,0,20.3,62.93c-.056-.034-.124-.034-.168-.08a8.993,8.993,0,0,0-5.744-2.121H9.031A9.046,9.046,0,0,0,0,69.747v25.02H23.417V78.595a30.551,30.551,0,0,0,15.676,7.076A6.823,6.823,0,0,1,37.852,82.579Z" transform="translate(0 -7.893)"/><path class="a" d="M83.876,60.729H78.5a8.957,8.957,0,0,0-5.732,2.122c-.055.045-.126.045-.169.078a21.616,21.616,0,0,0-4.7,4.764c-3.284,4.063-7.008,8.7-17.425,9.852a4.3,4.3,0,0,0,.474,8.576c.159,0,.316-.013.486-.023,8.825-.982,14.287-4.12,18.045-7.449V94.767h23.4V69.747A9.043,9.043,0,0,0,83.876,60.729Z" transform="translate(-6.219 -7.893)"/><path class="a" d="M39.3,24.183V14.258A4.547,4.547,0,0,1,43.74,9.611h9.71V7.245A5.625,5.625,0,0,0,47.958,1.5H22.492A5.625,5.625,0,0,0,17,7.245V19.526a5.626,5.626,0,0,0,5.492,5.749h4.2v6.786a.462.462,0,0,0,.781.325q3.006-3.554,6.007-7.11h5.948A4.781,4.781,0,0,1,39.3,24.183Z" transform="translate(-2.266 0)"/><path class="a" d="M45.637,17.464V28.543a4.1,4.1,0,0,0,4,4.191H60.195q2.191,2.591,4.379,5.183a.336.336,0,0,0,.569-.235V32.735h6.609a4.1,4.1,0,0,0,4-4.191V17.464a4.1,4.1,0,0,0-4-4.191H49.641A4.1,4.1,0,0,0,45.637,17.464Z" transform="translate(-6.082 -1.569)"/></g></svg>