<svg xmlns="http://www.w3.org/2000/svg" width="73.574" height="86.49" viewBox="0 0 73.574 86.49"><defs><style>.a{fill:none;}.b{fill:#32e8fe;}</style></defs><g transform="translate(-0.001 -0.001)"><path class="a" d="M38,50.327" transform="translate(-5.134 -6.799)"/><path class="a" d="M24.647,57.658" transform="translate(-3.33 -7.789)"/><path class="b" d="M50.63,21.026c1.954,3.035,2.6,6.1,1.448,6.853L7.661,56.512c-1.166.739-3.685-1.111-5.644-4.147h0c-1.954-3.036-2.6-6.1-1.444-6.854L44.985,16.884c1.166-.745,3.685,1.107,5.645,4.142Z" transform="translate(0 -2.259)"/><g transform="translate(47.191 0.001)"><path class="b" d="M72.361,1.029a13.785,13.785,0,0,0-17.8,7.15L66.9,27.579a13.786,13.786,0,0,0,5.464-26.55Z" transform="translate(-54.562 -0.001)"/></g><path class="b" d="M40.865,76.181c0,1.384-1.551,2.494-3.461,2.494h0c-1.911,0-3.463-1.112-3.463-2.494V35.773c0-1.383,1.551-2.494,3.463-2.494h0c1.911,0,3.461,1.112,3.461,2.494Z" transform="translate(-4.585 -4.496)"/><ellipse class="b" cx="26.491" cy="10.003" rx="26.491" ry="10.003" transform="translate(7.15 66.485)"/></g></svg>